<svg width="331" height="218" viewBox="0 0 331 218" fill="none" xmlns="http://www.w3.org/2000/svg">
<g clip-path="url(#clip0_202_8356)">
<path d="M305.527 126.963C305.53 127.05 305.5 127.134 305.444 127.199C305.385 127.269 305.3 127.312 305.209 127.319C305.118 127.326 305.028 127.297 304.959 127.237L303.805 126.237L284.198 109.254L229.203 61.6128C228.889 61.3428 228.49 61.1947 228.077 61.1954C227.664 61.196 227.265 61.3453 226.952 61.6163L152.893 126.306L152.225 126.887C152.2 126.91 152.171 126.929 152.139 126.943C152.084 126.967 152.023 126.977 151.964 126.97C151.878 126.961 151.798 126.921 151.74 126.856C151.71 126.822 151.687 126.782 151.672 126.739C151.658 126.697 151.652 126.651 151.655 126.606C151.657 126.56 151.669 126.516 151.689 126.475C151.709 126.435 151.737 126.398 151.771 126.368L151.864 126.285L226.501 61.0937C226.939 60.715 227.498 60.5062 228.076 60.5049C228.654 60.5036 229.214 60.71 229.654 61.0868L284.666 108.741L305.406 126.711C305.442 126.742 305.472 126.781 305.492 126.825C305.513 126.868 305.525 126.915 305.527 126.963Z" fill="#3F3D56"/>
<path d="M263.712 137.184L262.807 134.678L259.688 126.026L252.969 107.395L245.458 86.5701L231.912 49.0079C231.646 48.2754 231.102 47.6787 230.399 47.3486C229.697 47.0184 228.893 46.9816 228.163 47.2463L149.846 75.796C149.118 76.0632 148.524 76.6099 148.196 77.3165C147.867 78.023 147.831 78.8316 148.094 79.5651L167.299 132.816L167.626 133.726L187.785 142.912L193.451 145.494L194.37 145.912L218.36 156.846L219.289 156.507L235.024 150.772L258.759 142.119L261.957 140.953C262.686 140.686 263.28 140.139 263.609 139.433C263.938 138.727 263.975 137.918 263.712 137.184Z" fill="#00A3FF"/>
<path d="M230.873 92.8276C230.482 91.7496 229.682 90.8713 228.648 90.3853C227.614 89.8994 226.431 89.8454 225.358 90.2353L194.37 101.535L179.406 106.99C178.874 107.183 178.386 107.48 177.968 107.863C177.551 108.246 177.212 108.708 176.972 109.223C176.733 109.738 176.596 110.295 176.571 110.863C176.545 111.431 176.631 111.998 176.824 112.533C177.016 113.067 177.312 113.558 177.694 113.977C178.075 114.397 178.535 114.737 179.047 114.977C179.56 115.218 180.114 115.355 180.679 115.38C181.243 115.405 181.808 115.318 182.339 115.123L194.37 110.738L228.294 98.3721C229.367 97.9793 230.24 97.1751 230.723 96.1357C231.207 95.0963 231.26 93.9067 230.873 92.8276Z" fill="white"/>
<path d="M236.329 107.959C235.938 106.881 235.138 106.003 234.104 105.517C233.07 105.031 231.887 104.977 230.814 105.367L225.564 107.281L194.37 118.654L184.862 122.118C183.79 122.51 182.916 123.314 182.433 124.353C181.95 125.392 181.897 126.581 182.286 127.659C182.675 128.738 183.473 129.617 184.506 130.104C185.539 130.59 186.722 130.645 187.795 130.255L194.37 127.856L233.75 113.5C233.84 113.469 233.926 113.431 234.012 113.393C235.012 112.952 235.807 112.145 236.238 111.136C236.668 110.127 236.7 108.991 236.329 107.959Z" fill="white"/>
<path d="M241.843 123.25C241.453 122.172 240.654 121.294 239.621 120.808C238.588 120.322 237.405 120.268 236.332 120.657L221.609 126.025L210.211 130.182L194.37 135.955L190.377 137.412C189.454 137.75 188.674 138.395 188.165 139.239C187.656 140.084 187.449 141.078 187.578 142.057C187.618 142.348 187.687 142.635 187.785 142.912L193.451 145.494L194.37 145.158H194.377L223.124 134.678L239.265 128.794C240.338 128.402 241.212 127.598 241.695 126.559C242.179 125.519 242.232 124.329 241.843 123.25H241.843Z" fill="white"/>
<path d="M209.578 77.9522C209.187 76.8742 208.387 75.9959 207.354 75.51C206.32 75.024 205.137 74.97 204.063 75.3599L186.266 81.8458C185.194 82.2376 184.321 83.0414 183.838 84.0804C183.354 85.1195 183.301 86.3089 183.69 87.3872C184.079 88.4656 184.877 89.3447 185.91 89.8313C186.943 90.318 188.126 90.3724 189.199 89.9826L194.831 87.9303L198.559 86.5701L207 83.4933C208.072 83.1012 208.945 82.2976 209.429 81.2588C209.912 80.22 209.966 79.0308 209.578 77.9522Z" fill="white"/>
<path d="M280.601 86.5701H197.296C196.805 86.5706 196.321 86.6954 195.89 86.9331C195.46 87.1708 195.095 87.5137 194.831 87.9302C194.529 88.4018 194.369 88.951 194.37 89.5119V145.912L218.36 156.846L221.74 158.386L227.079 160.819C227.392 160.961 227.731 161.034 228.074 161.034C228.417 161.034 228.756 160.961 229.069 160.819L234.408 158.386L251.117 150.772L266.69 143.673L283.527 136.004V89.5119C283.526 88.7318 283.218 87.9839 282.669 87.4323C282.12 86.8807 281.377 86.5706 280.601 86.5701Z" fill="#384CFF"/>
<path d="M263.389 126.026H214.508C213.396 126.026 212.328 126.459 211.527 127.234C210.726 128.009 210.255 129.066 210.212 130.182C210.206 130.239 210.203 130.295 210.205 130.352C210.206 131.499 210.66 132.598 211.467 133.409C212.273 134.22 213.367 134.676 214.508 134.678H263.389C264.53 134.678 265.625 134.222 266.431 133.411C267.238 132.6 267.692 131.499 267.692 130.352C267.692 129.204 267.238 128.104 266.431 127.293C265.625 126.481 264.53 126.026 263.389 126.026Z" fill="white"/>
<path d="M266.174 143.151C265.398 142.483 264.41 142.117 263.389 142.119H214.508C213.366 142.119 212.272 142.575 211.465 143.386C210.658 144.198 210.205 145.298 210.205 146.445C210.205 147.593 210.658 148.693 211.465 149.505C212.272 150.316 213.366 150.772 214.508 150.772H251.117L266.69 143.673C266.533 143.485 266.36 143.31 266.174 143.151Z" fill="white"/>
<path d="M221.74 158.386L227.079 160.819C227.392 160.961 227.731 161.034 228.074 161.034C228.417 161.034 228.756 160.961 229.069 160.819L234.408 158.386H221.74Z" fill="white"/>
<path d="M252.456 107.582C252.153 106.749 251.603 106.03 250.88 105.522C250.157 105.013 249.297 104.741 248.415 104.74H229.482C228.655 104.741 227.846 104.981 227.152 105.432C226.457 105.882 225.906 106.524 225.564 107.281C225.309 107.841 225.178 108.45 225.179 109.067C225.18 110.214 225.634 111.313 226.441 112.124C227.247 112.935 228.341 113.391 229.482 113.393H248.415C249.107 113.393 249.789 113.225 250.403 112.904C251.017 112.582 251.544 112.116 251.941 111.546C252.338 110.976 252.592 110.317 252.681 109.627C252.771 108.937 252.694 108.236 252.456 107.582Z" fill="white"/>
<path d="M249.447 150.772L232.738 158.386L228.783 160.189C228.56 160.29 228.318 160.342 228.074 160.342C227.829 160.342 227.588 160.29 227.365 160.189L223.41 158.386H221.74L227.079 160.819C227.392 160.961 227.731 161.034 228.074 161.034C228.417 161.034 228.756 160.961 229.069 160.819L234.408 158.386L251.117 150.772H249.447ZM249.447 150.772L232.738 158.386L228.783 160.189C228.56 160.29 228.318 160.342 228.074 160.342C227.829 160.342 227.588 160.29 227.365 160.189L223.41 158.386H221.74L227.079 160.819C227.392 160.961 227.731 161.034 228.074 161.034C228.417 161.034 228.756 160.961 229.069 160.819L234.408 158.386L251.117 150.772H249.447ZM249.447 150.772L232.738 158.386L228.783 160.189C228.56 160.29 228.318 160.342 228.074 160.342C227.829 160.342 227.588 160.29 227.365 160.189L223.41 158.386H221.74L227.079 160.819C227.392 160.961 227.731 161.034 228.074 161.034C228.417 161.034 228.756 160.961 229.069 160.819L234.408 158.386L251.117 150.772H249.447ZM305.527 126.963C305.4 126.836 305.26 126.723 305.11 126.624C304.772 126.404 304.384 126.273 303.982 126.243C303.58 126.213 303.177 126.286 302.811 126.455L266.174 143.151L249.447 150.772L232.738 158.386L228.783 160.189C228.56 160.29 228.318 160.342 228.074 160.342C227.829 160.342 227.588 160.29 227.365 160.189L223.41 158.386L219.289 156.507L194.377 145.158L194.37 145.154L187.578 142.057L167.299 132.816L153.337 126.455C153.195 126.389 153.046 126.339 152.893 126.306C152.556 126.221 152.204 126.214 151.864 126.285C151.319 126.397 150.83 126.694 150.478 127.127C150.126 127.559 149.934 128.101 149.933 128.659V215.575C149.933 216.218 150.187 216.834 150.639 217.288C151.091 217.742 151.703 217.997 152.342 217.998H303.805C304.444 217.997 305.057 217.742 305.509 217.288C305.96 216.834 306.214 216.218 306.215 215.575V128.659C306.216 128.025 305.969 127.416 305.527 126.963V126.963ZM305.527 215.575C305.526 216.034 305.345 216.474 305.022 216.799C304.7 217.123 304.262 217.306 303.805 217.306H152.342C151.886 217.306 151.448 217.123 151.125 216.799C150.803 216.474 150.621 216.034 150.621 215.575V128.659C150.621 128.37 150.693 128.086 150.831 127.832C150.969 127.578 151.168 127.362 151.409 127.206C151.579 127.096 151.767 127.017 151.964 126.97C152.022 126.958 152.08 126.948 152.139 126.943C152.206 126.933 152.274 126.928 152.342 126.929C152.587 126.929 152.829 126.982 153.051 127.085L167.626 133.726L187.785 142.912L193.451 145.494L194.37 145.912L218.36 156.846L221.74 158.386L227.079 160.819C227.392 160.961 227.731 161.034 228.074 161.034C228.417 161.034 228.756 160.961 229.069 160.819L234.408 158.386L251.117 150.772L266.69 143.673L303.096 127.085C303.358 126.965 303.646 126.914 303.933 126.935C304.219 126.956 304.496 127.049 304.738 127.206C304.766 127.222 304.792 127.241 304.817 127.261C304.845 127.279 304.87 127.3 304.893 127.323C305.091 127.484 305.251 127.688 305.361 127.919C305.47 128.15 305.527 128.403 305.527 128.659L305.527 215.575ZM249.447 150.772L232.738 158.386L228.783 160.189C228.56 160.29 228.318 160.342 228.074 160.342C227.829 160.342 227.588 160.29 227.365 160.189L223.41 158.386H221.74L227.079 160.819C227.392 160.961 227.731 161.034 228.074 161.034C228.417 161.034 228.756 160.961 229.069 160.819L234.408 158.386L251.117 150.772H249.447ZM249.447 150.772L232.738 158.386L228.783 160.189C228.56 160.29 228.318 160.342 228.074 160.342C227.829 160.342 227.588 160.29 227.365 160.189L223.41 158.386H221.74L227.079 160.819C227.392 160.961 227.731 161.034 228.074 161.034C228.417 161.034 228.756 160.961 229.069 160.819L234.408 158.386L251.117 150.772H249.447ZM193.451 145.494L194.37 145.912V145.158L193.451 145.494ZM249.447 150.772L232.738 158.386L228.783 160.189C228.56 160.29 228.318 160.342 228.074 160.342C227.829 160.342 227.588 160.29 227.365 160.189L223.41 158.386H221.74L227.079 160.819C227.392 160.961 227.731 161.034 228.074 161.034C228.417 161.034 228.756 160.961 229.069 160.819L234.408 158.386L251.117 150.772H249.447Z" fill="#3F3D56"/>
<path d="M103.13 107.074L103.126 107.082C102.324 106.711 101.411 106.664 100.576 106.951C99.7404 107.238 99.0469 107.837 98.6389 108.624C98.231 109.411 98.1397 110.325 98.3842 111.178C98.6286 112.031 99.19 112.757 99.952 113.205L99.948 113.212L106.053 116.412L109.235 110.273C109.657 109.459 109.739 108.511 109.465 107.635C109.191 106.76 108.582 106.03 107.773 105.606C106.963 105.182 106.02 105.098 105.149 105.374C104.278 105.649 103.552 106.261 103.13 107.074Z" fill="#FC6565"/>
<path d="M146.067 151.474L146.064 151.485C144.906 151.233 143.696 151.439 142.684 152.059C141.673 152.679 140.937 153.667 140.63 154.817C140.323 155.968 140.468 157.193 141.035 158.239C141.602 159.285 142.548 160.072 143.676 160.436L143.673 160.448L152.598 162.855L154.992 153.881C155.149 153.292 155.19 152.678 155.111 152.073C155.032 151.468 154.835 150.885 154.532 150.356C153.919 149.289 152.91 148.51 151.727 148.191C150.543 147.872 149.282 148.038 148.221 148.654C147.159 149.27 146.384 150.284 146.067 151.474V151.474Z" fill="#FC6565"/>
<path d="M283.431 189.276L280.529 184.12C280.147 184.244 281.259 187.13 280.852 187.218C280.43 187.31 280.003 187.384 279.574 187.439C279.138 187.496 278.703 187.534 278.275 187.553C277.842 187.571 277.418 187.57 277.008 187.549C276.627 187.531 276.248 187.491 275.872 187.429C275.56 187.378 275.251 187.303 274.951 187.204C274.714 187.128 274.488 187.022 274.278 186.888C274.119 186.79 273.985 186.654 273.889 186.492L268.592 176.783C268.526 176.644 268.509 176.487 268.542 176.337C268.575 176.187 268.658 176.052 268.776 175.954C268.93 175.791 269.105 175.65 269.296 175.534C269.546 175.379 269.807 175.245 270.078 175.132C270.401 174.997 270.731 174.88 271.067 174.782C271.431 174.674 271.806 174.582 272.188 174.505C272.585 174.426 272.986 174.362 273.386 174.314C273.799 174.265 274.211 174.233 274.616 174.218L273.503 172.313C273.127 171.796 272.595 171.415 271.986 171.227C271.098 170.907 270.174 170.698 269.235 170.605C268.041 170.474 266.839 170.432 265.639 170.481C264.274 170.531 262.913 170.669 261.566 170.894L133.278 192.195C131.93 192.418 130.598 192.727 129.29 193.121C128.138 193.463 127.014 193.89 125.925 194.401C125.066 194.792 124.258 195.289 123.519 195.88C123.002 196.254 122.62 196.787 122.429 197.399L115.697 215.978C115.638 216.259 115.657 216.55 115.753 216.82C115.85 217.09 116.019 217.327 116.242 217.506C116.873 218.003 117.614 218.34 118.402 218.486C119.431 218.72 123.684 218.394 124.935 218.384C126.369 218.373 128.277 218.634 129.755 218.384L274.217 195.011C275.673 194.776 277.107 194.426 278.508 193.962C279.613 193.606 280.675 193.124 281.672 192.525C282.372 192.132 282.966 191.574 283.404 190.898C283.558 190.657 283.643 190.378 283.647 190.091C283.652 189.805 283.577 189.522 283.431 189.276Z" fill="#E4E4E4"/>
<path d="M281.365 186.507L279.974 184.129C279.591 184.254 279.193 184.361 278.786 184.449C278.365 184.541 277.937 184.615 277.509 184.67C277.073 184.727 276.638 184.765 276.209 184.784C275.777 184.802 275.352 184.801 274.942 184.78C274.562 184.762 274.183 184.722 273.807 184.66C273.494 184.61 273.186 184.534 272.885 184.435C272.649 184.359 272.423 184.253 272.213 184.119C272.053 184.021 271.92 183.885 271.824 183.723L266.526 174.014C266.461 173.875 266.443 173.718 266.477 173.568C266.51 173.418 266.592 173.283 266.71 173.185C266.864 173.023 267.04 172.881 267.231 172.765C267.48 172.61 267.742 172.476 268.012 172.364C268.335 172.228 268.665 172.111 269.001 172.013C269.366 171.906 269.741 171.813 270.123 171.737C270.519 171.657 270.92 171.593 271.321 171.545C271.734 171.496 272.145 171.464 272.551 171.449L271.438 169.545C271.062 169.027 270.53 168.646 269.92 168.459C269.032 168.138 268.108 167.929 267.169 167.836C265.975 167.705 264.773 167.663 263.573 167.712C262.208 167.762 260.848 167.9 259.501 168.125L131.212 189.426C129.865 189.649 128.533 189.958 127.224 190.352C126.073 190.694 124.948 191.122 123.86 191.632C123 192.023 122.192 192.52 121.454 193.111C120.937 193.485 120.554 194.018 120.364 194.63L116.386 213.902C116.326 214.182 116.346 214.473 116.442 214.743C116.538 215.013 116.707 215.251 116.931 215.429C117.561 215.927 118.303 216.263 119.091 216.409C120.226 216.654 121.385 216.767 122.546 216.747C124.02 216.733 125.491 216.601 126.944 216.353L272.152 192.242C273.607 192.007 275.042 191.657 276.442 191.194C277.548 190.837 278.609 190.355 279.606 189.756C280.306 189.363 280.901 188.805 281.339 188.13C281.493 187.889 281.577 187.609 281.582 187.322C281.586 187.036 281.512 186.754 281.365 186.507Z" fill="#1C78FF" fill-opacity="0.5"/>
<path d="M115.783 214.002L119.812 194.721C120.016 194.077 120.421 193.515 120.967 193.12C121.747 192.498 122.6 191.975 123.507 191.562C124.653 191.024 125.839 190.574 127.052 190.213C128.43 189.799 129.832 189.473 131.251 189.238L259.422 167.956C260.84 167.72 262.273 167.575 263.71 167.522C264.974 167.471 266.24 167.515 267.497 167.654C268.488 167.752 269.463 167.971 270.4 168.308C271.043 168.506 271.606 168.907 272.006 169.451L273.279 171.615L272.44 171.645C272.081 171.659 271.716 171.688 271.35 171.731C270.994 171.774 270.638 171.83 270.286 171.901C269.948 171.969 269.615 172.051 269.292 172.146C268.995 172.234 268.702 172.338 268.416 172.458C268.177 172.557 267.946 172.676 267.725 172.813C267.556 172.917 267.401 173.042 267.265 173.187C267.161 173.274 267.089 173.393 267.059 173.526C267.03 173.659 267.046 173.798 267.104 173.921L272.43 183.625C272.516 183.768 272.634 183.888 272.775 183.976C272.962 184.094 273.162 184.189 273.373 184.257C273.639 184.344 273.913 184.41 274.19 184.455C274.523 184.508 274.858 184.542 275.195 184.557C275.558 184.575 275.934 184.575 276.316 184.558C276.696 184.542 277.082 184.508 277.468 184.458C277.846 184.41 278.224 184.345 278.596 184.264C278.957 184.185 279.309 184.091 279.648 183.981L280.414 183.731L281.99 186.404C282.144 186.663 282.222 186.961 282.217 187.263C282.212 187.565 282.123 187.86 281.961 188.114C281.499 188.826 280.873 189.415 280.135 189.83C279.085 190.462 277.966 190.971 276.801 191.347C275.324 191.836 273.811 192.207 272.276 192.455L126.915 216.591C125.383 216.853 123.831 216.991 122.277 217.005C121.053 217.026 119.83 216.906 118.634 216.647C117.803 216.493 117.021 216.138 116.357 215.612C116.122 215.424 115.944 215.174 115.842 214.889C115.741 214.604 115.72 214.297 115.783 214.002ZM270.907 169.633C270.551 169.144 270.048 168.783 269.472 168.606C268.633 168.303 267.759 168.105 266.871 168.016C265.741 167.892 264.605 167.852 263.47 167.898C262.179 167.945 260.892 168.075 259.617 168.287L131.209 189.609C129.934 189.82 128.674 190.113 127.436 190.485C126.347 190.809 125.283 191.214 124.254 191.697C123.442 192.068 122.679 192.538 121.982 193.096C121.494 193.451 121.133 193.954 120.953 194.532L117.029 213.795C116.974 214.06 116.994 214.335 117.086 214.59C117.179 214.845 117.339 215.069 117.551 215.237C118.149 215.706 118.85 216.023 119.596 216.161C120.669 216.392 121.765 216.498 122.862 216.48C124.254 216.467 125.642 216.343 127.015 216.109L272.072 192.023C273.446 191.8 274.801 191.469 276.123 191.032C277.167 190.695 278.17 190.239 279.112 189.674C279.774 189.303 280.337 188.775 280.753 188.138C280.9 187.91 280.981 187.646 280.986 187.375C280.992 187.104 280.923 186.837 280.786 186.604L279.562 184.499C279.138 184.608 278.704 184.7 278.267 184.774C277.821 184.85 277.373 184.909 276.927 184.949C276.479 184.99 276.034 185.012 275.598 185.016C275.163 185.021 274.739 185.006 274.33 184.972C273.954 184.943 273.579 184.891 273.208 184.818C272.9 184.758 272.597 184.674 272.302 184.566C272.069 184.482 271.847 184.369 271.641 184.229C271.483 184.124 271.351 183.983 271.255 183.818L265.987 174.104C265.919 173.965 265.896 173.808 265.922 173.655C265.949 173.502 266.022 173.362 266.133 173.254C266.273 173.086 266.436 172.939 266.617 172.817C266.85 172.656 267.097 172.515 267.355 172.395C267.664 172.25 267.981 172.123 268.305 172.014C268.66 171.895 269.027 171.789 269.404 171.698C269.8 171.602 270.203 171.521 270.609 171.455C271.031 171.387 271.454 171.334 271.875 171.297L270.907 169.633Z" fill="#E4E4E4"/>
<path d="M234.447 174.989L241.503 193.878L196.273 201.388L193.312 181.819L234.447 174.989Z" fill="white"/>
<path d="M195.513 201.803L192.55 181.707L235.061 174.648L242.373 194.023L195.513 201.803ZM194.047 181.936L196.996 200.979L240.602 193.739L233.802 175.335L194.047 181.936Z" fill="#E4E4E4"/>
<path d="M240.492 193.795L233.715 175.421L196.676 201.071L240.492 193.795Z" fill="#F0F0F0"/>
<path d="M173.679 194.794L173.666 194.792C174.129 194.54 174.542 194.203 174.884 193.8C174.994 193.679 175.076 193.535 175.124 193.377C175.171 193.22 175.183 193.054 175.158 192.892C175.108 192.731 175.025 192.582 174.914 192.456C174.802 192.33 174.666 192.229 174.513 192.16C174.03 191.917 173.509 191.76 172.973 191.695C172.247 191.593 171.513 191.558 170.781 191.591C169.965 191.623 169.152 191.709 168.347 191.848C167.531 191.986 166.725 192.175 165.933 192.416C165.202 192.634 164.491 192.913 163.806 193.25L163.795 193.246L154.568 198.199L164.474 199.85C165.245 199.968 166.026 200.009 166.805 199.974C167.681 199.94 168.554 199.845 169.417 199.689C170.285 199.535 171.143 199.322 171.982 199.05C172.742 198.81 173.477 198.498 174.178 198.119C174.697 197.851 175.165 197.494 175.561 197.064C175.687 196.937 175.784 196.784 175.846 196.615C175.907 196.447 175.932 196.267 175.917 196.088C175.877 195.917 175.798 195.757 175.688 195.62C175.578 195.483 175.439 195.373 175.281 195.297C174.782 195.033 174.239 194.863 173.679 194.794Z" fill="#F0F0F0"/>
<path d="M166.244 182.389H166.235C166.192 181.503 165.811 180.667 165.172 180.055C164.533 179.443 163.684 179.101 162.801 179.101C161.918 179.101 161.07 179.443 160.43 180.055C159.791 180.667 159.411 181.503 159.368 182.389H159.359V189.311H166.244C167.157 189.311 168.032 188.946 168.678 188.297C169.323 187.648 169.686 186.768 169.686 185.85C169.686 184.932 169.323 184.052 168.678 183.403C168.032 182.754 167.157 182.389 166.244 182.389Z" fill="#FC6565"/>
<path d="M129.217 128.802L129.22 128.81C128.397 129.132 127.729 129.759 127.353 130.562C126.978 131.366 126.924 132.283 127.204 133.125C127.483 133.967 128.074 134.669 128.853 135.085C129.633 135.501 130.542 135.599 131.392 135.36L131.395 135.368L137.926 133.178L135.748 126.612C135.605 126.18 135.379 125.782 135.083 125.438C134.786 125.095 134.426 124.813 134.021 124.61C133.617 124.407 133.177 124.286 132.726 124.254C132.275 124.221 131.822 124.279 131.393 124.423C130.964 124.567 130.567 124.794 130.226 125.092C129.884 125.39 129.605 125.752 129.403 126.159C129.201 126.566 129.08 127.008 129.048 127.462C129.016 127.915 129.074 128.371 129.217 128.802Z" fill="#FC6565"/>
<path d="M165.054 218.64H0.752928C0.644428 218.64 0.540482 218.596 0.463872 218.519C0.387262 218.442 0.344238 218.337 0.344238 218.228C0.344238 218.119 0.387262 218.014 0.463872 217.937C0.540482 217.86 0.644428 217.816 0.752928 217.816H165.054C165.163 217.816 165.266 217.86 165.343 217.937C165.42 218.014 165.463 218.119 165.463 218.228C165.463 218.337 165.42 218.442 165.343 218.519C165.266 218.596 165.163 218.64 165.054 218.64Z" fill="#3F3D56"/>
</g>
<g clip-path="url(#clip1_202_8356)">
<path d="M57.8381 143.393C45.2419 130.926 39.9219 117.919 42.8576 106.77C46.6251 92.4619 63.3619 82.5692 88.7766 79.6283L88.8704 80.449C63.8095 83.3488 47.328 93.0194 43.6519 106.981C40.7948 117.832 46.0376 130.554 58.4145 142.804L57.8381 143.393Z" fill="#384CFF" fill-opacity="0.4"/>
<path d="M179.37 187.647C163.649 187.647 146.565 185.299 129.597 180.782C108.613 175.197 89.3726 166.766 73.9565 156.401L74.413 155.715C89.7549 166.029 108.91 174.421 129.807 179.983C148.691 185.01 167.717 187.339 184.821 186.725L184.851 187.55C183.045 187.615 181.218 187.648 179.37 187.647Z" fill="#384CFF" fill-opacity="0.4"/>
<path d="M215.435 182.453L215.172 181.671C229.232 176.891 238.026 169.192 240.603 159.405C243.879 146.962 236.762 132.524 220.562 118.749C204.28 104.904 180.8 93.4165 154.448 86.4024L154.658 85.6039C181.126 92.6488 204.719 104.196 221.092 118.119C237.548 132.111 244.759 146.848 241.397 159.616C238.746 169.684 229.769 177.581 215.435 182.453Z" fill="#384CFF" fill-opacity="0.4"/>
<path d="M86.3305 187.993C55.4402 174.218 31.6368 156.347 19.3057 137.672L19.99 137.215C32.2359 155.761 55.9143 173.526 86.6635 187.238L86.3305 187.993Z" fill="#384CFF" fill-opacity="0.4"/>
<path d="M194.939 211.856C191.752 211.856 188.512 211.784 185.217 211.641L185.252 210.816C209.842 211.886 231.538 208.928 247.999 202.258L248.306 203.025C233.947 208.842 215.645 211.856 194.939 211.856Z" fill="#F0F0F0"/>
<path d="M177.016 80.369C171.91 78.6977 166.658 77.1415 161.407 75.7437C131.186 67.6998 101.478 64.8437 75.4945 67.486L75.4119 66.6641C101.492 64.0131 131.302 66.876 161.617 74.9451C166.884 76.347 172.15 77.9076 177.27 79.5837L177.016 80.369Z" fill="#384CFF" fill-opacity="0.4"/>
<path d="M38.5324 144.632C25.9363 132.164 20.6163 119.158 23.552 108.009C27.3194 93.7008 44.0562 83.8081 69.4709 80.8672L69.5648 81.6879C44.5039 84.5877 28.0224 94.2583 24.3462 108.22C21.4891 119.071 26.7319 131.793 39.1088 144.043L38.5324 144.632Z" fill="#384CFF" fill-opacity="0.4"/>
<path d="M160.064 188.886C144.343 188.886 127.26 186.538 110.291 182.021C89.307 176.436 70.067 168.005 54.6509 157.641L55.1074 156.954C70.4492 167.268 89.6041 175.66 110.501 181.222C129.386 186.249 148.412 188.578 165.516 187.964L165.545 188.789C163.739 188.854 161.912 188.887 160.064 188.886Z" fill="#384CFF" fill-opacity="0.4"/>
<path d="M196.129 183.692L195.866 182.91C209.926 178.13 218.72 170.431 221.297 160.643C224.573 148.201 217.456 133.763 201.256 119.988C184.974 106.143 161.495 94.6554 135.142 87.6413L135.353 86.8428C161.82 93.8877 185.414 105.435 201.787 119.357C218.242 133.35 225.454 148.087 222.092 160.855C219.441 170.923 210.463 178.82 196.129 183.692Z" fill="#384CFF" fill-opacity="0.4"/>
<path d="M67.0249 189.232C36.1345 175.457 12.3312 157.586 0 138.911L0.684335 138.454C12.9303 157 36.6087 174.765 67.3578 188.477L67.0249 189.232Z" fill="#384CFF" fill-opacity="0.4"/>
<path d="M175.633 213.095C172.447 213.095 169.206 213.023 165.911 212.88L165.946 212.055C190.536 213.125 212.232 210.167 228.693 203.497L229 204.264C214.641 210.081 196.339 213.095 175.633 213.095Z" fill="#F0F0F0"/>
<path d="M157.71 81.6079C152.604 79.9366 147.353 78.3804 142.101 76.9826C111.88 68.9386 82.1725 66.0826 56.1888 68.7249L56.1062 67.9029C82.1868 65.252 111.996 68.1149 142.311 76.184C147.578 77.5859 152.844 79.1465 157.964 80.8226L157.71 81.6079Z" fill="#384CFF" fill-opacity="0.4"/>
<path d="M20.9447 123.812C20.1176 122.879 19.6473 121.681 19.6177 120.432C19.5881 119.182 20.0012 117.963 20.7832 116.992C20.9421 116.796 21.2525 117.035 21.0934 117.231C20.3636 118.134 19.9789 119.27 20.0088 120.433C20.0387 121.597 20.4812 122.711 21.2565 123.575C21.4248 123.763 21.112 123.999 20.9447 123.812H20.9447Z" fill="white"/>
<path d="M16.2755 133.525C18.8109 133.695 21.3165 132.897 23.2929 131.291C23.4885 131.132 23.724 131.446 23.5286 131.605C21.4689 133.272 18.8596 134.097 16.2217 133.915C15.9703 133.897 16.0255 133.508 16.2755 133.525Z" fill="white"/>
<path d="M30.1848 117.124C30.43 117.552 30.7771 117.912 31.1949 118.172C31.6128 118.432 32.0882 118.583 32.5786 118.612C32.8301 118.627 32.7747 119.016 32.5248 119.002C31.9831 118.967 31.4582 118.799 30.996 118.513C30.5337 118.227 30.1482 117.831 29.873 117.361C29.8433 117.319 29.8308 117.267 29.8379 117.216C29.8449 117.165 29.8711 117.118 29.911 117.086C29.9525 117.055 30.0045 117.041 30.0558 117.048C30.107 117.055 30.1534 117.083 30.1848 117.124Z" fill="white"/>
<path d="M49.8403 141.985C43.1033 139.053 35.6186 138.33 28.4493 139.918C26.8999 140.232 25.4095 140.79 24.0328 141.571C22.7163 142.375 21.638 143.52 20.91 144.885C20.2058 146.144 19.6304 147.514 18.6341 148.579C18.116 149.116 17.4907 149.537 16.7993 149.815C16.1079 150.093 15.366 150.22 14.6221 150.189C12.7667 150.16 11.0322 149.463 9.35956 148.722C7.50241 147.899 5.58637 147.015 3.51006 147.094C3.25849 147.104 3.2584 146.711 3.50959 146.701C7.12201 146.563 10.0545 149.156 13.5287 149.7C15.1497 149.955 16.8568 149.719 18.0977 148.561C19.1827 147.548 19.7772 146.136 20.4793 144.855C21.1701 143.513 22.1772 142.361 23.4127 141.5C24.7453 140.651 26.2119 140.037 27.7497 139.683C31.199 138.83 34.7603 138.527 38.303 138.786C42.348 139.06 46.3166 140.027 50.0372 141.646C50.2675 141.746 50.0691 142.085 49.8403 141.985Z" fill="white"/>
<path d="M30.7278 139.27C30.6261 138.024 30.968 136.783 31.6925 135.767C32.4171 134.752 33.4771 134.029 34.6831 133.726C34.9274 133.666 35.0321 134.045 34.7875 134.105C33.6639 134.385 32.6766 135.059 32.0038 136.006C31.331 136.953 31.0171 138.11 31.1187 139.269C31.1405 139.521 30.7494 139.52 30.7278 139.27Z" fill="white"/>
<path d="M21.1832 144.199C23.1062 145.869 25.5845 146.749 28.124 146.663C28.3756 146.654 28.3758 147.047 28.1245 147.056C25.4816 147.14 22.9044 146.219 20.9072 144.477C20.7169 144.311 20.994 144.034 21.1832 144.199Z" fill="white"/>
<path d="M42.1104 139.523C42.0499 140.013 42.1114 140.511 42.2894 140.971C42.4674 141.432 42.7564 141.84 43.1304 142.161C43.3226 142.324 43.0453 142.601 42.8543 142.439C42.4428 142.083 42.1242 141.631 41.9264 141.123C41.7285 140.615 41.6575 140.066 41.7195 139.524C41.7211 139.472 41.7421 139.423 41.7784 139.386C41.8147 139.35 41.8634 139.328 41.9147 139.327C41.9665 139.327 42.016 139.348 42.0527 139.384C42.0893 139.421 42.1101 139.471 42.1104 139.523H42.1104Z" fill="white"/>
<path d="M225.589 161.384C231.728 165.431 236.443 171.32 239.064 178.214C239.654 179.688 240.01 181.247 240.118 182.832C240.173 184.38 239.815 185.915 239.081 187.277C238.422 188.56 237.6 189.796 237.262 191.218C237.101 191.949 237.094 192.706 237.243 193.439C237.393 194.172 237.695 194.866 238.129 195.473C239.173 197.016 240.706 198.09 242.241 199.087C243.945 200.195 245.733 201.318 246.809 203.106C246.939 203.322 247.266 203.106 247.136 202.89C245.264 199.78 241.498 198.742 239.136 196.123C238.034 194.901 237.292 193.338 237.572 191.659C237.817 190.191 238.664 188.916 239.342 187.622C240.078 186.304 240.481 184.825 240.517 183.314C240.49 181.728 240.195 180.159 239.644 178.672C238.457 175.306 236.751 172.149 234.588 169.316C232.137 166.069 229.153 163.267 225.762 161.032C225.553 160.893 225.38 161.246 225.589 161.384Z" fill="white"/>
<path d="M238.35 175.944C239.44 175.345 240.284 174.375 240.729 173.209C241.175 172.042 241.193 170.754 240.782 169.575C240.697 169.337 240.325 169.457 240.409 169.696C240.795 170.793 240.778 171.993 240.361 173.078C239.943 174.164 239.154 175.064 238.135 175.615C237.914 175.736 238.13 176.064 238.35 175.944Z" fill="white"/>
<path d="M239.5 186.67C237.056 185.973 234.962 184.375 233.638 182.195C233.507 181.978 233.18 182.194 233.311 182.41C234.694 184.676 236.875 186.335 239.421 187.055C239.663 187.123 239.741 186.738 239.5 186.67Z" fill="white"/>
<path d="M231.883 166.523C231.509 166.843 231.061 167.065 230.581 167.168C230.101 167.272 229.602 167.254 229.131 167.116C228.889 167.044 228.811 167.429 229.051 167.5C229.573 167.65 230.123 167.67 230.654 167.557C231.185 167.443 231.681 167.201 232.097 166.851C232.139 166.821 232.168 166.777 232.179 166.726C232.189 166.676 232.18 166.623 232.153 166.579C232.125 166.536 232.08 166.505 232.03 166.495C231.979 166.484 231.926 166.494 231.883 166.523Z" fill="white"/>
<path d="M223.968 187.197C224.481 186.058 224.574 184.773 224.231 183.572C223.888 182.371 223.131 181.331 222.096 180.639C221.886 180.5 221.661 180.821 221.871 180.961C222.836 181.603 223.541 182.572 223.858 183.691C224.175 184.81 224.084 186.006 223.6 187.064C223.496 187.294 223.864 187.425 223.968 187.197H223.968Z" fill="white"/>
<path d="M213.163 183.589C213.056 184.071 212.832 184.519 212.511 184.892C212.189 185.265 211.78 185.553 211.321 185.728C211.085 185.817 211.254 186.172 211.488 186.083C211.994 185.887 212.445 185.569 212.802 185.158C213.158 184.746 213.408 184.253 213.531 183.721C213.547 183.672 213.544 183.619 213.522 183.572C213.5 183.525 213.461 183.489 213.413 183.47C213.364 183.453 213.311 183.455 213.264 183.478C213.217 183.5 213.181 183.54 213.163 183.589V183.589Z" fill="white"/>
<path d="M180.614 205.198C182.429 205.198 183.9 203.719 183.9 201.894C183.9 200.069 182.429 198.59 180.614 198.59C178.799 198.59 177.328 200.069 177.328 201.894C177.328 203.719 178.799 205.198 180.614 205.198Z" fill="#FD6584"/>
<path d="M192.254 148.925C194.069 148.925 195.54 147.446 195.54 145.622C195.54 143.797 194.069 142.318 192.254 142.318C190.439 142.318 188.968 143.797 188.968 145.622C188.968 147.446 190.439 148.925 192.254 148.925Z" fill="#E6E6E6"/>
<path d="M62.2464 180.715C62.2464 181.556 62.2739 182.397 62.3324 183.231C62.3944 184.228 62.5011 185.217 62.6457 186.2C63.1316 189.51 64.0602 192.738 65.4064 195.798C65.4753 195.95 65.5441 196.102 65.613 196.255L65.7163 196.483C65.7507 196.559 65.7885 196.635 65.823 196.708C65.8712 196.808 65.9159 196.905 65.9641 197.002C66.0226 197.123 66.0811 197.244 66.1431 197.366C66.15 197.379 66.1569 197.397 66.1672 197.414C66.2188 197.518 66.267 197.618 66.3221 197.722C66.3322 197.745 66.3437 197.767 66.3565 197.788C66.4151 197.905 66.477 198.027 66.539 198.144C66.6078 198.269 66.6732 198.397 66.7421 198.522C66.9073 198.83 67.0794 199.134 67.255 199.439C67.3066 199.529 67.3583 199.619 67.4133 199.709C67.4615 199.792 67.5097 199.875 67.5614 199.958C67.5958 200.013 67.6302 200.072 67.6646 200.127C67.7197 200.221 67.7748 200.311 67.8333 200.404C67.9607 200.609 68.0915 200.813 68.2188 201.017H68.2223C68.2808 201.11 68.3428 201.204 68.4047 201.294V201.297C68.5872 201.574 68.7765 201.851 68.9658 202.124C68.9663 202.124 68.9667 202.124 68.9672 202.125C68.9676 202.125 68.968 202.125 68.9683 202.125C68.9686 202.126 68.9689 202.126 68.969 202.127C68.9692 202.127 68.9693 202.127 68.9693 202.128C69.1207 202.349 69.2791 202.564 69.434 202.779V202.782C69.5373 202.917 69.6371 203.055 69.7404 203.19C69.823 203.301 69.909 203.415 69.9951 203.526C70.0123 203.55 70.033 203.571 70.0502 203.595V203.599C70.0743 203.63 70.0984 203.658 70.1225 203.689C70.4873 204.159 70.8637 204.62 71.2516 205.07L71.3135 205.142C71.3342 205.167 71.3583 205.191 71.3789 205.219C71.4133 205.257 71.4443 205.295 71.4787 205.333C71.5097 205.371 71.5441 205.409 71.5786 205.447C73.6003 207.737 75.8927 209.77 78.4047 211.5C78.7387 211.732 79.0794 211.957 79.4202 212.175C79.5063 212.231 79.5924 212.286 79.6784 212.338C79.7025 212.355 79.73 212.372 79.7541 212.39C79.8023 212.417 79.8471 212.445 79.8953 212.476C79.94 212.504 79.9848 212.532 80.033 212.559C80.2154 212.674 80.4013 212.784 80.5872 212.895C80.6319 212.923 80.6801 212.95 80.7283 212.978C80.7731 213.002 80.8213 213.03 80.8695 213.058C80.8695 213.061 80.8695 213.061 80.8729 213.061H80.8764V213.065H80.8798C81.1104 213.2 81.3445 213.331 81.582 213.459C81.7094 213.528 81.8402 213.601 81.971 213.667C82.2671 213.83 82.5665 213.985 82.866 214.134C82.9727 214.186 83.0829 214.238 83.1896 214.293C83.2791 214.335 83.3686 214.38 83.4581 214.421C83.4857 214.435 83.5097 214.446 83.5338 214.459C83.6096 214.494 83.6819 214.529 83.7576 214.563C83.8402 214.601 83.9228 214.639 84.002 214.677C84.0949 214.719 84.1844 214.761 84.2774 214.799C84.6216 214.954 84.9693 215.103 85.317 215.245C86.563 215.759 87.8363 216.202 89.1311 216.574C89.1896 216.591 89.2516 216.609 89.3135 216.626C89.8678 216.782 90.4254 216.924 90.9865 217.052C91.9676 217.28 92.9579 217.467 93.9573 217.612H93.9642C94.0847 217.63 94.2017 217.647 94.3222 217.664C94.3325 217.664 94.3428 217.668 94.3566 217.668C94.3566 217.671 94.3566 217.671 94.36 217.668C94.4908 217.685 94.6251 217.702 94.7559 217.72C94.7648 217.722 94.7741 217.723 94.7835 217.723C94.9074 217.74 95.0347 217.754 95.1587 217.768C95.2929 217.782 95.4271 217.796 95.5614 217.81C95.6647 217.82 95.768 217.83 95.8712 217.841C95.8801 217.844 95.8895 217.845 95.8988 217.844C95.9917 217.851 96.0847 217.862 96.1776 217.869H96.1914C96.2705 217.875 96.3532 217.882 96.4323 217.889C97.3927 217.965 98.3566 218 99.3342 218C100.391 218 101.441 217.958 102.477 217.869H102.487C102.711 217.848 102.931 217.827 103.152 217.806C103.21 217.799 103.265 217.796 103.324 217.789C103.334 217.789 103.348 217.785 103.358 217.785C103.376 217.782 103.393 217.782 103.413 217.779C103.423 217.779 103.432 217.778 103.441 217.775C103.517 217.768 103.592 217.758 103.672 217.751L103.93 217.72C104.016 217.709 104.102 217.695 104.188 217.685C104.209 217.682 104.226 217.682 104.246 217.678C104.308 217.671 104.37 217.661 104.432 217.65C104.463 217.647 104.494 217.644 104.522 217.64C104.584 217.63 104.642 217.623 104.704 217.612H104.708C106.597 217.339 108.461 216.917 110.284 216.349C110.381 216.318 110.477 216.29 110.573 216.259C110.577 216.259 110.58 216.256 110.584 216.256C110.611 216.245 110.642 216.238 110.67 216.228C110.928 216.145 111.183 216.058 111.438 215.968C111.789 215.851 112.136 215.723 112.484 215.591C112.577 215.553 112.67 215.519 112.763 215.48C112.952 215.408 113.138 215.332 113.324 215.255C113.641 215.127 113.957 214.992 114.271 214.854C114.563 214.722 114.852 214.591 115.141 214.452C115.148 214.449 115.159 214.449 115.166 214.442C115.231 214.411 115.296 214.38 115.358 214.349H115.362C116.947 213.584 118.476 212.706 119.937 211.722C120.405 211.407 120.866 211.081 121.32 210.746C121.685 210.472 122.043 210.195 122.401 209.912C124.168 208.499 125.803 206.928 127.286 205.219V205.215C127.393 205.097 127.493 204.976 127.596 204.855C127.613 204.838 127.627 204.821 127.641 204.807C127.706 204.727 127.768 204.651 127.833 204.575V204.571C127.919 204.471 128.006 204.367 128.088 204.263C128.109 204.239 128.126 204.218 128.143 204.198V204.194C128.212 204.111 128.277 204.028 128.346 203.941C128.381 203.9 128.412 203.858 128.446 203.817V203.813C128.649 203.557 128.845 203.301 129.042 203.038C129.093 202.969 129.145 202.896 129.2 202.824C129.448 202.488 129.689 202.145 129.923 201.803V201.799C130.012 201.671 130.098 201.54 130.188 201.411C130.274 201.28 130.36 201.148 130.446 201.017C130.532 200.878 130.622 200.743 130.708 200.605L130.718 200.584C130.804 200.453 130.89 200.314 130.973 200.179C131.038 200.069 131.104 199.961 131.169 199.854C131.21 199.781 131.255 199.709 131.296 199.633C131.313 199.609 131.328 199.585 131.341 199.56C131.438 199.39 131.534 199.221 131.63 199.051C131.744 198.854 131.854 198.653 131.964 198.452C132.006 198.369 132.05 198.286 132.095 198.203C132.112 198.175 132.126 198.148 132.14 198.12C132.191 198.023 132.243 197.923 132.291 197.822C132.343 197.726 132.395 197.625 132.446 197.525C132.494 197.428 132.546 197.327 132.594 197.227C132.632 197.151 132.666 197.075 132.704 196.999C132.707 196.993 132.71 196.987 132.715 196.981C132.732 196.943 132.749 196.909 132.763 196.874C132.767 196.869 132.771 196.863 132.773 196.857C132.811 196.781 132.845 196.701 132.883 196.625C132.932 196.525 132.976 196.421 133.024 196.32C133.055 196.251 133.09 196.178 133.121 196.106C133.166 196.005 133.214 195.905 133.255 195.801C133.303 195.697 133.348 195.594 133.393 195.486C133.406 195.46 133.417 195.434 133.427 195.407C133.451 195.358 133.469 195.31 133.489 195.261C133.544 195.133 133.599 195.002 133.651 194.874C133.713 194.728 133.771 194.579 133.827 194.434C133.882 194.299 133.933 194.161 133.985 194.022L134.006 193.974C134.808 191.85 135.416 189.657 135.823 187.422V187.419C136.053 186.143 136.217 184.856 136.315 183.563C136.319 183.49 136.326 183.421 136.329 183.352C136.391 182.476 136.419 181.597 136.419 180.715C136.419 180.324 136.412 179.936 136.401 179.548C136.161 171.441 133.286 163.637 128.216 157.329C128.105 157.19 127.995 157.052 127.882 156.913C127.768 156.775 127.651 156.64 127.537 156.505C123.764 152.062 119.005 148.572 113.643 146.318C108.282 144.063 102.469 143.107 96.6732 143.525C90.8769 143.944 85.2596 145.726 80.2741 148.728C75.2885 151.73 71.0742 155.867 67.971 160.807C67.8023 161.077 67.6337 161.35 67.4719 161.624C67.3066 161.901 67.1483 162.178 66.9899 162.458C63.8714 168.031 62.2374 174.32 62.2464 180.715Z" fill="#F2F2F2" fill-opacity="0.5"/>
<path d="M97.8602 156.326C103.959 157.9 110.208 158.806 116.5 159.031C117.451 159.083 118.405 159.077 119.356 159.012C121.445 158.835 123.234 158.175 125.227 157.814C126.186 157.641 127.253 157.515 128.217 157.328C127.994 157.05 127.768 156.775 127.537 156.504C125.457 156.68 123.345 157.259 121.24 157.528C117.662 157.985 113.652 157.475 110.94 156.216C109.624 155.605 108.616 154.842 107.304 154.229C107.126 154.136 106.933 154.077 106.734 154.053C106.356 154.041 105.982 154.139 105.657 154.334C103.457 155.45 100.263 156.358 97.2979 155.859C97.0769 156.032 97.4968 156.23 97.8602 156.326Z" fill="white"/>
<path d="M84.7398 160.256C84.7127 160.251 84.6855 160.247 84.6584 160.243C84.7724 160.172 84.8796 160.09 84.9789 160L84.7398 160.256Z" fill="white"/>
<path d="M66.9907 162.459C68.229 162.559 69.4739 162.633 70.7251 162.682C71.6766 162.733 72.6303 162.727 73.581 162.662C75.6701 162.485 77.4597 161.825 79.4526 161.465C81.2791 161.134 83.4987 160.975 84.6584 160.243C81.6611 159.721 78.5556 160.783 75.4648 161.178C72.9648 161.487 70.4305 161.361 67.9729 160.806C67.6307 161.347 67.3033 161.898 66.9907 162.459Z" fill="white"/>
<path d="M81.9709 213.667C82.267 213.83 82.5665 213.985 82.866 214.134C82.9727 214.186 83.0828 214.238 83.1895 214.293C83.279 214.335 83.3685 214.38 83.458 214.421C83.4856 214.435 83.5097 214.446 83.5338 214.459C83.6095 214.494 83.6818 214.529 83.7575 214.563C83.8401 214.601 83.9228 214.639 84.0019 214.677C84.0949 214.719 84.1844 214.761 84.2773 214.799C84.6216 214.954 84.9692 215.103 85.3169 215.245C86.5629 215.759 87.8362 216.202 89.131 216.574C89.1896 216.591 89.2515 216.609 89.3135 216.626C89.8677 216.782 90.4254 216.924 90.9865 217.052C91.9675 217.28 92.9578 217.467 93.9572 217.612H93.9641C94.0846 217.63 94.2016 217.647 94.3221 217.664C94.3324 217.664 94.3428 217.668 94.3565 217.668C94.3565 217.671 94.3565 217.671 94.36 217.668C94.4908 217.685 94.625 217.702 94.7558 217.72C94.7648 217.722 94.7741 217.724 94.7834 217.723C94.9073 217.74 95.0347 217.754 95.1586 217.768C95.2928 217.782 95.4271 217.796 95.5614 217.81C95.6646 217.82 95.7679 217.83 95.8712 217.841C95.88 217.844 95.8894 217.845 95.8987 217.844C95.9916 217.851 96.0846 217.862 96.1775 217.869H96.1913C96.2705 217.875 96.3531 217.882 96.4323 217.889C97.3927 217.965 98.3565 218 99.3342 218C100.391 218 101.441 217.959 102.477 217.869H102.487C102.711 217.848 102.931 217.827 103.152 217.806C103.21 217.799 103.265 217.796 103.324 217.789C103.334 217.789 103.348 217.785 103.358 217.785C103.375 217.782 103.393 217.782 103.413 217.779C103.423 217.779 103.432 217.778 103.441 217.775C103.517 217.768 103.592 217.758 103.672 217.751L103.93 217.72C104.016 217.709 104.102 217.695 104.188 217.685C104.209 217.682 104.226 217.682 104.246 217.678C104.308 217.671 104.37 217.661 104.432 217.651C104.463 217.647 104.494 217.644 104.522 217.64C104.584 217.63 104.642 217.623 104.704 217.612H104.708C106.597 217.339 108.461 216.917 110.284 216.349C110.381 216.318 110.477 216.29 110.573 216.259C110.129 214.175 109.214 212.222 107.899 210.55C106.584 208.878 104.904 207.532 102.99 206.617C103.463 206.163 103.791 205.577 103.93 204.935C104.019 204.521 104.026 204.093 103.951 203.676C103.875 203.259 103.718 202.861 103.489 202.505C103.042 201.816 102.342 201.333 101.541 201.162L96.4391 200.089C95.6179 199.928 94.7667 200.1 94.0705 200.567C93.3743 201.033 92.8895 201.757 92.7214 202.581C92.6694 202.834 92.6463 203.092 92.6526 203.35C87.7403 206.638 84.205 210.047 81.9709 213.667Z" fill="#ABABAB"/>
<path d="M97.0344 198.063C102.904 198.063 107.663 193.279 107.663 187.377C107.663 181.476 102.904 176.691 97.0344 176.691C91.1645 176.691 86.406 181.476 86.406 187.377C86.406 193.279 91.1645 198.063 97.0344 198.063Z" fill="#FFB8B8"/>
<path d="M90.4095 196.591C89.2761 195.812 88.1187 194.316 87.346 193.195C86.3221 191.722 85.6176 190.048 85.2781 188.283C84.9386 186.518 84.9717 184.701 85.3753 182.95C85.504 182.25 85.8204 181.599 86.2902 181.066C86.7908 180.568 87.6084 180.332 88.2194 180.684C88.0527 180.235 87.9792 179.756 88.0036 179.278C88.0279 178.799 88.1496 178.331 88.361 177.901C88.7905 177.044 89.4127 176.299 90.1784 175.725C91.6427 174.591 93.3851 173.877 95.2204 173.659C97.0558 173.44 98.9158 173.726 100.603 174.484C101.267 174.793 100.176 172.405 100.871 172.635C101.562 172.904 102.329 172.89 103.01 172.597C103.663 172.266 105.83 174.232 105.579 173.541C106.075 173.767 106.506 174.116 106.832 174.555C107.157 174.994 107.367 175.508 107.442 176.051C107.516 176.593 107.453 177.146 107.258 177.657C107.063 178.169 106.743 178.622 106.326 178.976C105.778 179.441 105.093 179.709 104.492 180.104C103.44 180.849 102.695 181.955 102.399 183.213C102.102 184.472 102.274 185.796 102.882 186.937C102.25 186.528 101.557 186.225 100.829 186.039C100.463 185.95 100.082 185.949 99.7166 186.038C99.3511 186.126 99.0118 186.301 98.7271 186.548C98.4891 186.821 98.3094 187.141 98.1989 187.487C98.0884 187.833 98.0494 188.199 98.0843 188.56C98.1082 189.286 98.2797 190 98.299 190.725C98.3555 192.854 99.4892 196.9 97.848 198.031C96.5528 198.924 91.957 197.653 90.4095 196.591Z" fill="#2F2E41"/>
<path d="M268.636 99.035C268.636 99.876 268.608 100.717 268.55 101.551C268.488 102.548 268.381 103.538 268.236 104.521C267.75 107.83 266.822 111.059 265.476 114.118C265.407 114.27 265.338 114.423 265.269 114.575L265.166 114.803C265.131 114.879 265.093 114.956 265.059 115.028C265.011 115.129 264.966 115.226 264.918 115.322C264.859 115.444 264.801 115.565 264.739 115.686C264.732 115.7 264.725 115.717 264.715 115.734C264.663 115.838 264.615 115.939 264.56 116.042C264.55 116.065 264.538 116.087 264.525 116.108C264.467 116.226 264.405 116.347 264.343 116.465C264.274 116.589 264.209 116.717 264.14 116.842C263.975 117.15 263.803 117.454 263.627 117.759C263.575 117.849 263.524 117.939 263.469 118.029C263.42 118.112 263.372 118.195 263.321 118.278C263.286 118.334 263.252 118.392 263.217 118.448C263.162 118.541 263.107 118.631 263.049 118.725C262.921 118.929 262.791 119.133 262.663 119.337H262.66C262.601 119.431 262.539 119.524 262.477 119.614V119.618C262.295 119.894 262.106 120.171 261.916 120.445L261.915 120.445L261.914 120.446L261.913 120.447L261.913 120.448C261.761 120.67 261.603 120.884 261.448 121.099V121.102C261.345 121.237 261.245 121.376 261.142 121.511C261.059 121.621 260.973 121.736 260.887 121.846C260.87 121.871 260.849 121.891 260.832 121.916V121.919C260.808 121.95 260.784 121.978 260.76 122.009C260.395 122.48 260.018 122.94 259.63 123.39L259.568 123.463C259.548 123.487 259.524 123.511 259.503 123.539C259.469 123.577 259.438 123.615 259.403 123.653C259.372 123.691 259.338 123.729 259.303 123.767C257.282 126.057 254.989 128.09 252.477 129.821C252.143 130.052 251.803 130.277 251.462 130.495C251.376 130.551 251.29 130.606 251.204 130.658C251.18 130.675 251.152 130.693 251.128 130.71C251.08 130.738 251.035 130.765 250.987 130.797C250.942 130.824 250.897 130.852 250.849 130.88C250.667 130.994 250.481 131.105 250.295 131.215C250.25 131.243 250.202 131.271 250.154 131.298C250.109 131.323 250.061 131.35 250.013 131.378C250.013 131.382 250.013 131.382 250.009 131.382H250.006V131.385H250.002C249.772 131.52 249.537 131.651 249.3 131.78C249.173 131.849 249.042 131.921 248.911 131.987C248.615 132.15 248.315 132.306 248.016 132.454C247.909 132.506 247.799 132.558 247.692 132.614C247.603 132.655 247.513 132.7 247.424 132.742C247.396 132.756 247.372 132.766 247.348 132.78C247.272 132.814 247.2 132.849 247.124 132.884C247.042 132.922 246.959 132.96 246.88 132.998C246.787 133.039 246.698 133.081 246.605 133.119C246.26 133.275 245.913 133.423 245.565 133.565C244.319 134.079 243.046 134.523 241.751 134.894C241.692 134.912 241.63 134.929 241.568 134.946C241.014 135.102 240.457 135.244 239.895 135.372C238.914 135.6 237.924 135.787 236.925 135.933H236.918C236.797 135.95 236.68 135.967 236.56 135.985C236.549 135.985 236.539 135.988 236.525 135.988C236.525 135.992 236.525 135.992 236.522 135.988C236.391 136.005 236.257 136.023 236.126 136.04C236.117 136.043 236.108 136.044 236.099 136.043C235.975 136.061 235.847 136.075 235.723 136.088C235.589 136.102 235.455 136.116 235.321 136.13C235.217 136.14 235.114 136.151 235.011 136.161C235.002 136.164 234.993 136.165 234.983 136.165C234.89 136.172 234.797 136.182 234.704 136.189H234.691C234.611 136.196 234.529 136.203 234.45 136.21C233.489 136.286 232.525 136.32 231.548 136.32C230.491 136.32 229.441 136.279 228.405 136.189H228.395C228.171 136.168 227.951 136.147 227.73 136.127C227.672 136.12 227.617 136.116 227.558 136.109C227.548 136.109 227.534 136.106 227.524 136.106C227.506 136.102 227.489 136.102 227.469 136.099C227.459 136.099 227.45 136.098 227.441 136.095C227.365 136.088 227.29 136.078 227.21 136.071L226.952 136.04C226.866 136.03 226.78 136.016 226.694 136.005C226.673 136.002 226.656 136.002 226.636 135.998C226.574 135.992 226.512 135.981 226.45 135.971C226.419 135.967 226.388 135.964 226.36 135.96C226.298 135.95 226.24 135.943 226.178 135.933H226.174C224.285 135.659 222.421 135.237 220.598 134.669C220.501 134.638 220.405 134.611 220.309 134.579C220.305 134.579 220.302 134.576 220.298 134.576C220.271 134.566 220.24 134.559 220.212 134.548C219.954 134.465 219.699 134.379 219.444 134.289C219.093 134.171 218.746 134.043 218.398 133.911C218.305 133.873 218.212 133.839 218.119 133.801C217.93 133.728 217.744 133.652 217.558 133.576C217.241 133.448 216.925 133.313 216.611 133.174C216.319 133.043 216.03 132.911 215.741 132.773C215.734 132.769 215.723 132.769 215.716 132.762C215.651 132.731 215.586 132.7 215.524 132.669H215.52C213.935 131.904 212.406 131.026 210.945 130.042C210.477 129.727 210.016 129.402 209.562 129.066C209.197 128.793 208.839 128.516 208.481 128.232C206.714 126.82 205.08 125.249 203.596 123.539V123.535C203.489 123.418 203.389 123.297 203.286 123.175C203.269 123.158 203.255 123.141 203.241 123.127C203.176 123.047 203.114 122.971 203.049 122.895V122.892C202.963 122.791 202.876 122.687 202.794 122.584C202.773 122.559 202.756 122.539 202.739 122.518V122.514C202.67 122.431 202.605 122.348 202.536 122.262C202.501 122.22 202.47 122.179 202.436 122.137V122.134C202.233 121.878 202.037 121.621 201.84 121.358C201.789 121.289 201.737 121.217 201.682 121.144C201.434 120.808 201.193 120.465 200.959 120.123V120.119C200.87 119.991 200.784 119.86 200.694 119.732C200.608 119.6 200.522 119.469 200.436 119.337C200.35 119.199 200.26 119.064 200.174 118.925L200.164 118.905C200.078 118.773 199.992 118.635 199.909 118.5C199.844 118.389 199.778 118.282 199.713 118.174C199.672 118.102 199.627 118.029 199.586 117.953C199.569 117.929 199.555 117.905 199.541 117.88C199.444 117.711 199.348 117.541 199.252 117.371C199.138 117.174 199.028 116.973 198.918 116.773C198.876 116.69 198.832 116.607 198.787 116.523C198.77 116.496 198.756 116.468 198.742 116.44C198.691 116.343 198.639 116.243 198.591 116.143C198.539 116.046 198.487 115.945 198.436 115.845C198.388 115.748 198.336 115.648 198.288 115.547C198.25 115.471 198.216 115.395 198.178 115.319C198.175 115.313 198.172 115.307 198.167 115.302C198.15 115.264 198.133 115.229 198.119 115.194C198.115 115.189 198.111 115.183 198.109 115.177C198.071 115.101 198.037 115.021 197.999 114.945C197.95 114.845 197.906 114.741 197.858 114.641C197.827 114.571 197.792 114.499 197.761 114.426C197.716 114.326 197.668 114.225 197.627 114.122C197.579 114.018 197.534 113.914 197.489 113.807C197.476 113.781 197.465 113.754 197.455 113.727C197.431 113.678 197.413 113.63 197.393 113.582C197.338 113.454 197.283 113.322 197.231 113.194C197.169 113.049 197.111 112.9 197.055 112.754C197 112.619 196.949 112.481 196.897 112.343L196.876 112.294C196.074 110.17 195.466 107.977 195.059 105.742V105.739C194.829 104.463 194.665 103.176 194.567 101.883C194.563 101.811 194.556 101.742 194.553 101.672C194.491 100.797 194.463 99.9176 194.463 99.035C194.463 98.6439 194.47 98.2563 194.481 97.8686C194.721 89.7617 197.596 81.9572 202.666 75.649C202.777 75.5106 202.887 75.3721 203 75.2337C203.114 75.0952 203.231 74.9603 203.345 74.8253C207.118 70.3821 211.877 66.8926 217.239 64.638C222.6 62.3834 228.413 61.4269 234.209 61.8455C240.005 62.2641 245.622 64.0462 250.608 67.048C255.593 70.0498 259.808 74.1875 262.911 79.1273C263.08 79.3973 263.248 79.6707 263.41 79.9441C263.575 80.221 263.734 80.4979 263.892 80.7782C267.011 86.3515 268.645 92.6402 268.636 99.035Z" fill="#F2F2F2" fill-opacity="0.5"/>
<path d="M233.022 74.6466C226.924 76.2199 220.674 77.1268 214.382 77.3515C213.431 77.4036 212.477 77.3971 211.526 77.332C209.437 77.1553 207.648 76.4951 205.655 76.1344C204.697 75.9614 203.629 75.835 202.665 75.6481C202.888 75.37 203.115 75.0954 203.345 74.8242C205.425 75.0009 207.538 75.5793 209.643 75.848C213.221 76.3055 217.23 75.795 219.942 74.536C221.258 73.9251 222.266 73.1626 223.578 72.5489C223.756 72.4569 223.949 72.3974 224.148 72.3732C224.526 72.3618 224.9 72.4592 225.225 72.654C227.425 73.7707 230.619 74.6783 233.584 74.1789C233.805 74.3528 233.385 74.5509 233.022 74.6466Z" fill="white"/>
<path d="M246.142 78.5766C246.169 78.5716 246.197 78.5677 246.224 78.563C246.11 78.4921 246.003 78.4108 245.903 78.3203L246.142 78.5766Z" fill="white"/>
<path d="M263.891 80.7797C262.653 80.8792 261.408 80.9533 260.157 81.002C259.205 81.0536 258.252 81.0471 257.301 80.9824C255.212 80.8048 253.422 80.1456 251.429 79.7848C249.603 79.4547 247.383 79.2957 246.224 78.563C249.221 78.0414 252.327 79.1033 255.417 79.4984C257.917 79.8075 260.452 79.6817 262.909 79.1265C263.251 79.6677 263.579 80.2187 263.891 80.7797Z" fill="white"/>
<path d="M227.367 115.351C233.519 115.351 238.506 110.225 238.506 103.902C238.506 97.5787 233.519 92.4529 227.367 92.4529C221.215 92.4529 216.228 97.5787 216.228 103.902C216.228 110.225 221.215 115.351 227.367 115.351Z" fill="#FFB6B6"/>
<path d="M248.911 131.987C248.615 132.15 248.316 132.306 248.016 132.454C247.909 132.506 247.799 132.558 247.693 132.614C247.603 132.655 247.513 132.7 247.424 132.742C247.396 132.756 247.372 132.766 247.348 132.78C247.273 132.814 247.2 132.849 247.125 132.884C247.042 132.922 246.959 132.96 246.88 132.998C246.787 133.039 246.698 133.081 246.605 133.119C246.26 133.275 245.913 133.424 245.565 133.565C244.319 134.079 243.046 134.523 241.751 134.894C241.692 134.912 241.631 134.929 241.569 134.946C241.014 135.102 240.457 135.244 239.896 135.372C238.915 135.601 237.924 135.787 236.925 135.933H236.918C236.797 135.95 236.68 135.967 236.56 135.985C236.55 135.985 236.539 135.988 236.525 135.988C236.525 135.992 236.525 135.992 236.522 135.988C236.391 136.005 236.257 136.023 236.126 136.04C236.117 136.043 236.108 136.044 236.099 136.043C235.975 136.061 235.847 136.075 235.723 136.088C235.589 136.102 235.455 136.116 235.321 136.13C235.217 136.14 235.114 136.151 235.011 136.161C235.002 136.164 234.993 136.165 234.983 136.165C234.89 136.172 234.797 136.182 234.705 136.189H234.691C234.612 136.196 234.529 136.203 234.45 136.21C233.489 136.286 232.526 136.32 231.548 136.32C230.491 136.32 229.441 136.279 228.405 136.189H228.395C228.171 136.168 227.951 136.147 227.73 136.127C227.672 136.12 227.617 136.116 227.558 136.109C227.548 136.109 227.534 136.106 227.524 136.106C227.507 136.102 227.489 136.102 227.469 136.099C227.459 136.099 227.45 136.098 227.441 136.095C227.365 136.088 227.29 136.078 227.211 136.071L226.952 136.04C226.866 136.03 226.78 136.016 226.694 136.005C226.673 136.002 226.656 136.002 226.636 135.999C226.574 135.992 226.512 135.981 226.45 135.971C226.419 135.967 226.388 135.964 226.36 135.96C226.298 135.95 226.24 135.943 226.178 135.933H226.174C224.285 135.659 222.421 135.237 220.598 134.669C220.501 134.638 220.405 134.611 220.309 134.58C220.753 132.495 221.668 130.542 222.983 128.87C224.298 127.198 225.978 125.853 227.892 124.937C227.419 124.484 227.091 123.898 226.952 123.255C226.863 122.841 226.856 122.413 226.931 121.996C227.007 121.579 227.164 121.181 227.393 120.825C227.84 120.136 228.54 119.653 229.341 119.483L234.443 118.41C235.264 118.249 236.115 118.42 236.812 118.887C237.508 119.353 237.993 120.078 238.161 120.902C238.213 121.154 238.236 121.412 238.229 121.67C243.142 124.958 246.677 128.367 248.911 131.987Z" fill="#ABABAB"/>
<path d="M257.174 98.9365C255.28 96.7165 254.38 93.7712 252.866 91.2504C251.353 88.7295 248.719 86.4733 245.936 87.0599C244.018 87.4643 242.536 89.1662 241.785 91.0635C241.035 92.9608 240.894 95.0532 240.763 97.103C240.809 92.8905 238.049 88.8069 234.246 87.4627C230.444 86.1186 225.894 87.6179 223.504 91.0021C222.462 90.0305 221.101 89.4772 219.679 89.4472C218.258 89.4172 216.875 89.9126 215.793 90.8394C213.656 92.7598 213.183 96.415 214.755 98.8645C216.326 101.314 219.73 102.227 222.228 100.868L223.111 101.685C222.614 103.433 223.578 105.497 225.198 106.155C226.512 106.689 228.367 106.6 228.858 107.986C229.202 108.955 228.56 109.989 227.877 110.733C227.194 111.478 226.383 112.246 226.301 113.276C226.177 114.83 227.774 115.919 229.226 116.247C232.728 117.038 236.613 115.407 238.631 112.301C238.67 112.241 238.712 112.181 238.757 112.121C239.89 110.665 240.715 108.992 241.182 107.205C241.65 105.418 241.75 103.554 241.477 101.726C241.364 101.008 241.478 100.474 241.97 100.304C244.099 99.5689 250.061 101.112 251.866 102.506C253.671 103.9 255.116 105.745 256.854 107.229C258.592 108.713 260.807 109.858 263.014 109.454C264.782 109.13 266.286 107.84 267.297 106.284C268.309 104.728 268.891 102.913 269.412 101.111C265.503 103.381 260.154 102.431 257.174 98.9365Z" fill="#2F2E41"/>
<path d="M28.5115 75.8464C28.5115 76.6874 28.539 77.5284 28.5976 78.3625C28.6595 79.3593 28.7662 80.3491 28.9108 81.3321C29.3967 84.6416 30.3254 87.87 31.6716 90.9294C31.7404 91.0817 31.8093 91.234 31.8781 91.3863L31.9814 91.6147C32.0158 91.6908 32.0537 91.767 32.0881 91.8397C32.1363 91.94 32.181 92.0369 32.2292 92.1338C32.2878 92.255 32.3463 92.3761 32.4082 92.4972C32.4151 92.5111 32.422 92.5284 32.4323 92.5457C32.484 92.6495 32.5322 92.7499 32.5872 92.8537C32.5974 92.8763 32.6089 92.8983 32.6217 92.9195C32.6802 93.0372 32.7422 93.1583 32.8041 93.276C32.873 93.4006 32.9384 93.5286 33.0072 93.6532C33.1724 93.9612 33.3446 94.2658 33.5201 94.5704C33.5718 94.6604 33.6234 94.7504 33.6785 94.8403C33.7267 94.9234 33.7749 95.0065 33.8265 95.0895C33.8609 95.1449 33.8953 95.2037 33.9298 95.2591C33.9848 95.3526 34.0399 95.4426 34.0984 95.536C34.2258 95.7402 34.3566 95.9444 34.484 96.1486H34.4874C34.5459 96.2421 34.6079 96.3355 34.6699 96.4255V96.4289C34.8523 96.7058 35.0416 96.9827 35.231 97.2561L35.2323 97.2563L35.2334 97.2571L35.2342 97.2582L35.2344 97.2596C35.3859 97.4811 35.5442 97.6956 35.6991 97.9102V97.9137C35.8024 98.0487 35.9022 98.1871 36.0055 98.3221C36.0881 98.4328 36.1742 98.5471 36.2602 98.6578C36.2774 98.682 36.2981 98.7028 36.3153 98.727V98.7305C36.3394 98.7616 36.3635 98.7893 36.3876 98.8205C36.7525 99.2912 37.1289 99.7515 37.5167 100.201L37.5787 100.274C37.5993 100.298 37.6234 100.323 37.6441 100.35C37.6785 100.388 37.7095 100.426 37.7439 100.464C37.7749 100.503 37.8093 100.541 37.8437 100.579C39.8654 102.868 42.1578 104.901 44.6699 106.632C45.0038 106.864 45.3446 107.089 45.6854 107.307C45.7714 107.362 45.8575 107.418 45.9435 107.47C45.9676 107.487 45.9952 107.504 46.0193 107.521C46.0675 107.549 46.1122 107.577 46.1604 107.608C46.2052 107.636 46.2499 107.663 46.2981 107.691C46.4806 107.805 46.6664 107.916 46.8523 108.027C46.8971 108.054 46.9453 108.082 46.9935 108.11C47.0382 108.134 47.0864 108.162 47.1346 108.189C47.1346 108.193 47.1346 108.193 47.138 108.193H47.1415V108.196H47.1449C47.3756 108.331 47.6097 108.463 47.8472 108.591C47.9745 108.66 48.1053 108.733 48.2362 108.799C48.5322 108.961 48.8317 109.117 49.1312 109.266C49.2379 109.318 49.348 109.37 49.4547 109.425C49.5442 109.467 49.6337 109.512 49.7232 109.553C49.7508 109.567 49.7749 109.577 49.799 109.591C49.8747 109.626 49.947 109.66 50.0227 109.695C50.1053 109.733 50.188 109.771 50.2671 109.809C50.3601 109.851 50.4496 109.892 50.5425 109.93C50.8868 110.086 51.2344 110.235 51.5821 110.377C52.8281 110.89 54.1014 111.334 55.3962 111.706C55.4547 111.723 55.5167 111.74 55.5787 111.758C56.1329 111.913 56.6906 112.055 57.2517 112.183C58.2327 112.412 59.223 112.599 60.2224 112.744H60.2293C60.3498 112.761 60.4668 112.779 60.5873 112.796C60.5976 112.796 60.608 112.799 60.6217 112.799C60.6217 112.803 60.6217 112.803 60.6252 112.799C60.756 112.817 60.8902 112.834 61.021 112.851C61.03 112.854 61.0393 112.855 61.0486 112.855C61.1725 112.872 61.2999 112.886 61.4238 112.9C61.558 112.914 61.6923 112.928 61.8265 112.941C61.9298 112.952 62.0331 112.962 62.1364 112.973C62.1452 112.976 62.1546 112.977 62.1639 112.976C62.2568 112.983 62.3498 112.993 62.4427 113H62.4565C62.5357 113.007 62.6183 113.014 62.6975 113.021C63.6579 113.097 64.6217 113.132 65.5994 113.132C66.6562 113.132 67.7061 113.09 68.7422 113H68.7525C68.9763 112.979 69.1966 112.959 69.4169 112.938C69.4755 112.931 69.5305 112.928 69.589 112.921C69.5994 112.921 69.6131 112.917 69.6235 112.917C69.6407 112.914 69.6579 112.914 69.6785 112.91C69.6878 112.911 69.6972 112.909 69.7061 112.907C69.7818 112.9 69.8575 112.889 69.9367 112.883L70.1949 112.851C70.281 112.841 70.367 112.827 70.4531 112.817C70.4737 112.813 70.4909 112.813 70.5116 112.81C70.5736 112.803 70.6355 112.793 70.6975 112.782C70.7285 112.779 70.7594 112.775 70.787 112.772C70.8489 112.761 70.9075 112.754 70.9694 112.744H70.9729C72.8618 112.471 74.7264 112.048 76.5495 111.481C76.6459 111.45 76.7422 111.422 76.8386 111.391C76.8421 111.391 76.8455 111.387 76.849 111.387C76.8765 111.377 76.9075 111.37 76.935 111.36C77.1932 111.277 77.4479 111.19 77.7027 111.1C78.0538 110.982 78.4015 110.854 78.7491 110.723C78.8421 110.685 78.935 110.65 79.028 110.612C79.2173 110.539 79.4032 110.463 79.5891 110.387C79.9058 110.259 80.2225 110.124 80.5357 109.986C80.8283 109.854 81.1175 109.723 81.4066 109.584C81.4135 109.581 81.4238 109.581 81.4307 109.574C81.4961 109.543 81.5615 109.512 81.6235 109.48H81.6269C83.2122 108.715 84.741 107.838 86.2018 106.853C86.67 106.539 87.1312 106.213 87.5856 105.877C87.9505 105.604 88.3085 105.327 88.6665 105.043C90.4327 103.631 92.0676 102.06 93.5512 100.35V100.347C93.6579 100.229 93.7578 100.108 93.861 99.9869C93.8782 99.9695 93.892 99.9522 93.9058 99.9384C93.9712 99.8588 94.0331 99.7827 94.0985 99.7065V99.703C94.1846 99.6027 94.2707 99.4989 94.3533 99.395C94.3739 99.3708 94.3912 99.35 94.4084 99.3293V99.3258C94.4772 99.2427 94.5426 99.1597 94.6115 99.0732C94.6459 99.0316 94.6769 98.9901 94.7113 98.9486V98.9451C94.9144 98.689 95.1106 98.4329 95.3068 98.1698C95.3585 98.1006 95.4101 98.0279 95.4652 97.9552C95.713 97.6195 95.954 97.2769 96.1881 96.9342V96.9308C96.2776 96.8027 96.3636 96.6712 96.4531 96.5432C96.5392 96.4116 96.6252 96.2801 96.7113 96.1486C96.7973 96.0102 96.8868 95.8752 96.9729 95.7368L96.9832 95.716C97.0693 95.5845 97.1553 95.446 97.238 95.311C97.3034 95.2003 97.3688 95.093 97.4342 94.9857C97.4755 94.913 97.5202 94.8404 97.5615 94.7642C97.5777 94.7408 97.5926 94.7165 97.6063 94.6915C97.7027 94.5219 97.7991 94.3524 97.8955 94.1828C98.009 93.9855 98.1192 93.7848 98.2294 93.584C98.2707 93.501 98.3154 93.4179 98.3602 93.3348C98.3774 93.3071 98.3912 93.2795 98.4049 93.2518C98.4566 93.1549 98.5082 93.0545 98.5564 92.9541C98.608 92.8572 98.6597 92.7568 98.7113 92.6565C98.7595 92.5596 98.8111 92.4592 98.8593 92.3588C98.8972 92.2827 98.9316 92.2065 98.9695 92.1304C98.9721 92.1242 98.9756 92.1184 98.9798 92.1131C98.997 92.075 99.0142 92.0404 99.028 92.0058C99.0322 92.0005 99.0357 91.9947 99.0383 91.9885C99.0762 91.9124 99.1106 91.8328 99.1485 91.7566C99.1967 91.6562 99.2414 91.5524 99.2896 91.452C99.3206 91.3828 99.355 91.3101 99.386 91.2375C99.4308 91.1371 99.4789 91.0367 99.5202 90.9329C99.5684 90.8291 99.6132 90.7252 99.6579 90.6179C99.6709 90.5921 99.6823 90.5655 99.6924 90.5383C99.7165 90.4899 99.7337 90.4414 99.7543 90.393C99.8094 90.2649 99.8645 90.1334 99.9161 90.0053C99.9781 89.86 100.037 89.7112 100.092 89.5658C100.147 89.4308 100.198 89.2924 100.25 89.1539L100.271 89.1055C101.073 86.9815 101.681 84.7886 102.088 82.5538V82.5503C102.318 81.2745 102.482 79.9876 102.58 78.6948C102.584 78.6221 102.591 78.5529 102.594 78.4837C102.656 77.608 102.684 76.7289 102.684 75.8464C102.684 75.4553 102.677 75.0677 102.667 74.68C102.426 66.5731 99.551 58.7686 94.4807 52.4604C94.3705 52.322 94.2603 52.1835 94.1467 52.0451C94.0331 51.9066 93.9161 51.7717 93.8025 51.6367C90.0289 47.1935 85.2697 43.704 79.9086 41.4494C74.5475 39.1948 68.7345 38.2383 62.9383 38.6569C57.1421 39.0755 51.5247 40.8576 46.5392 43.8594C41.5537 46.8612 37.3394 50.9989 34.2361 55.9387C34.0675 56.2087 33.8988 56.4821 33.737 56.7555C33.5718 57.0324 33.4134 57.3093 33.2551 57.5896C30.1365 63.1629 28.5026 69.4516 28.5115 75.8464Z" fill="#F2F2F2" fill-opacity="0.5"/>
<path d="M64.1251 51.4579C70.2235 53.0312 76.4729 53.9381 82.7648 54.1628C83.7163 54.2149 84.67 54.2084 85.6207 54.1433C87.7098 53.9666 89.4993 53.3064 91.4923 52.9456C92.4504 52.7727 93.5177 52.6462 94.4822 52.4593C94.2594 52.1813 94.0325 51.9067 93.8016 51.6355C91.7217 51.8122 89.6094 52.3905 87.5045 52.6593C83.9264 53.1167 79.9173 52.6063 77.2048 51.3473C75.8888 50.7364 74.8807 49.9739 73.5694 49.3602C73.391 49.2682 73.1978 49.2087 72.9987 49.1845C72.6206 49.1731 72.2472 49.2705 71.9223 49.4653C69.7221 50.582 66.5278 51.4895 63.5628 50.9902C63.3418 51.1641 63.7617 51.3621 64.1251 51.4579Z" fill="white"/>
<path d="M51.0047 55.3879C50.9776 55.3829 50.9504 55.379 50.9233 55.3743C51.0372 55.3033 51.1445 55.2221 51.2438 55.1316L51.0047 55.3879Z" fill="white"/>
<path d="M33.2556 57.591C34.4939 57.6905 35.7387 57.7646 36.99 57.8133C37.9415 57.8649 38.8952 57.8584 39.8459 57.7937C41.935 57.6161 43.7246 56.9569 45.7175 56.5961C47.544 56.266 49.7636 56.107 50.9233 55.3743C47.926 54.8527 44.8205 55.9145 41.7297 56.3097C39.2297 56.6188 36.6954 56.493 34.2378 55.9378C33.8956 56.4789 33.5682 57.03 33.2556 57.591Z" fill="white"/>
<path d="M48.2361 108.798C48.5321 108.961 48.8316 109.117 49.1311 109.266C49.2378 109.318 49.348 109.37 49.4547 109.425C49.5442 109.466 49.6337 109.511 49.7232 109.553C49.7507 109.567 49.7748 109.577 49.7989 109.591C49.8746 109.626 49.9469 109.66 50.0227 109.695C50.1053 109.733 50.1879 109.771 50.2671 109.809C50.36 109.851 50.4495 109.892 50.5425 109.93C50.8867 110.086 51.2344 110.235 51.582 110.377C52.828 110.89 54.1014 111.334 55.3962 111.706C55.4547 111.723 55.5167 111.74 55.5786 111.758C56.1328 111.913 56.6905 112.055 57.2516 112.183C58.2327 112.412 59.2229 112.599 60.2224 112.744H60.2292C60.3497 112.761 60.4668 112.779 60.5872 112.796C60.5976 112.796 60.6079 112.799 60.6217 112.799C60.6217 112.803 60.6217 112.803 60.6251 112.799C60.7559 112.817 60.8902 112.834 61.021 112.851C61.0299 112.854 61.0392 112.855 61.0485 112.855C61.1724 112.872 61.2998 112.886 61.4237 112.9C61.558 112.914 61.6922 112.927 61.8265 112.941C61.9298 112.952 62.033 112.962 62.1363 112.972C62.1451 112.976 62.1545 112.977 62.1638 112.976C62.2568 112.983 62.3497 112.993 62.4427 113H62.4564C62.5356 113.007 62.6182 113.014 62.6974 113.021C63.6578 113.097 64.6217 113.132 65.5993 113.132C66.6561 113.132 67.706 113.09 68.7422 113H68.7525C68.9762 112.979 69.1965 112.959 69.4169 112.938C69.4754 112.931 69.5305 112.927 69.589 112.921C69.5993 112.921 69.6131 112.917 69.6234 112.917C69.6406 112.914 69.6578 112.914 69.6785 112.91C69.6878 112.911 69.6971 112.909 69.706 112.907C69.7817 112.9 69.8575 112.889 69.9367 112.882L70.1948 112.851C70.2809 112.841 70.3669 112.827 70.453 112.817C70.4737 112.813 70.4909 112.813 70.5115 112.81C70.5735 112.803 70.6355 112.792 70.6974 112.782C70.7284 112.779 70.7594 112.775 70.7869 112.772C70.8489 112.761 70.9074 112.754 70.9694 112.744H70.9728C72.8617 112.471 74.7264 112.048 76.5494 111.481C76.6458 111.45 76.7422 111.422 76.8386 111.391C76.3941 109.307 75.479 107.353 74.1641 105.681C72.8492 104.009 71.1696 102.664 69.2551 101.748C69.7286 101.295 70.056 100.709 70.1948 100.066C70.2842 99.6522 70.2913 99.2243 70.2157 98.8074C70.14 98.3904 69.9832 97.9926 69.7542 97.6368C69.3075 96.9471 68.6067 96.4641 67.8058 96.2939L62.7043 95.221C61.883 95.06 61.0318 95.2315 60.3356 95.6981C59.6394 96.1647 59.1546 96.8888 58.9866 97.7129C58.9345 97.9655 58.9114 98.2233 58.9177 98.4813C54.0055 101.769 50.4702 105.178 48.2361 108.798Z" fill="#ABABAB"/>
<path d="M68.4181 91.7587C75.2762 91.7587 80.8358 86.169 80.8358 79.2737C80.8358 72.3785 75.2762 66.7888 68.4181 66.7888C61.5601 66.7888 56.0005 72.3785 56.0005 79.2737C56.0005 86.169 61.5601 91.7587 68.4181 91.7587Z" fill="#9E616A"/>
<path d="M66.6534 91.0914C63.5447 91.9356 60.1174 90.8133 57.6913 88.6844C55.2652 86.5555 53.7476 83.5389 52.8732 80.423C52.2328 78.141 51.9291 75.6078 52.9397 73.4654C53.9504 71.323 56.6703 69.8776 58.7687 70.9598C57.4742 69.4434 58.1209 66.9354 59.6328 65.6382C61.1446 64.3411 63.2206 63.9691 65.1979 63.7658C68.0674 63.4708 71.0315 63.4378 73.762 64.3724C76.4926 65.3071 78.9736 67.3506 79.8282 70.1205C80.701 70.5291 81.6839 70.6351 82.6231 70.4219C83.5622 70.2087 84.4045 69.6884 85.0181 68.9424C85.1763 69.7992 85.0492 70.6845 84.6566 71.4613C84.2639 72.2382 83.6276 72.8633 82.846 73.24L87.0298 71.8762C87.7493 73.4075 86.4885 75.3026 84.8763 75.793C83.264 76.2833 81.5236 75.7473 79.9937 75.0389C78.4637 74.3305 76.9811 73.4348 75.3193 73.1585C73.6574 72.8823 71.7054 73.4191 70.9367 74.926C70.5341 75.7153 70.5131 76.6397 70.2793 77.495C70.0456 78.3503 69.4534 79.237 68.5739 79.307C68.0183 79.3513 67.4743 79.0537 66.9202 79.1145C66.5801 79.1818 66.267 79.3474 66.0191 79.5909C65.7712 79.8344 65.5993 80.1453 65.5245 80.4856C65.3865 81.1683 65.3848 81.8718 65.5195 82.5553L66.5823 90.7225L66.6534 91.0914Z" fill="#2F2E41"/>
</g>
<defs>
<clipPath id="clip0_202_8356">
<rect width="261.809" height="170.929" fill="white" transform="translate(69.1912 47.0696)"/>
</clipPath>
<clipPath id="clip1_202_8356">
<rect width="278.603" height="218" fill="white"/>
</clipPath>
</defs>
</svg>
